
<svg width="18px" height="22px" viewBox="0 0 18 22" version="1.1" xmlns="http://www.w3.org/2000/svg" xmlns:xlink="http://www.w3.org/1999/xlink">
    <!-- Generator: Sketch 49 (51002) - http://www.bohemiancoding.com/sketch -->
    <desc>Created with Sketch.</desc>
    <defs></defs>
    <g id="Symbols" stroke="none" stroke-width="1" fill="none" fill-rule="evenodd">
        <g id="Header" transform="translate(-30.000000, -18.000000)" fill="#FFFFFF">
            <g id="Group-13">
                <g transform="translate(30.000000, 15.000000)">
                    <g id="Group-9" transform="translate(0.000000, 3.000000)">
                        <path d="M13.0510605,5.32779553 C11.3825609,5.32779553 10.0109976,6.32587859 9.14846819,6.32587859 C8.22937942,6.32587859 7.01335428,5.38402556 5.55695208,5.38402556 C2.79968578,5.38402556 0,7.64728435 0,11.9207668 C0,14.5916933 1.03220738,17.3891374 2.31893166,19.2166134 C3.40769835,20.7488818 4.3692066,22 5.75490966,22 C7.1264729,22 7.72034564,21.1003195 9.4171249,21.1003195 C11.1563236,21.1003195 11.538099,21.971885 13.0510605,21.971885 C14.5498822,21.971885 15.5396701,20.6223642 16.4870385,19.2728435 C17.5333857,17.7265176 17.9858602,16.2223642 18,16.1380192 C17.915161,16.1099042 15.0447761,14.9571885 15.0447761,11.6958466 C15.0447761,8.87028754 17.2930086,7.60511182 17.4202671,7.50670927 C15.9497251,5.38402556 13.6732129,5.32779553 13.0510605,5.32779553 Z M12.2592302,3.514377 C12.9520817,2.69904153 13.4328358,1.57444089 13.4328358,0.435782748 C13.4328358,0.28115016 13.418696,0.126517572 13.3904163,0 C12.27337,0.042172524 10.9442262,0.745047923 10.1382561,1.67284345 C9.50196386,2.38977636 8.92223095,3.514377 8.92223095,4.65303514 C8.92223095,4.82172524 8.9505106,4.99041534 8.96465043,5.04664537 C9.03534957,5.06070288 9.14846819,5.07476038 9.2615868,5.07476038 C10.2655145,5.07476038 11.5239592,4.41405751 12.2592302,3.514377 Z" id=""></path>
                    </g>
                </g>
            </g>
        </g>
    </g>
</svg>