
<svg width="13px" height="15px" viewBox="0 0 13 15" version="1.1" xmlns="http://www.w3.org/2000/svg" xmlns:xlink="http://www.w3.org/1999/xlink">
    <!-- Generator: Sketch 49 (51002) - http://www.bohemiancoding.com/sketch -->
    <desc>Created with Sketch.</desc>
    <defs></defs>
    <g id="Symbols" stroke="none" stroke-width="1" fill="none" fill-rule="evenodd">
        <g id="Commands--One-File,-More-Open" transform="translate(-4.000000, -439.000000)" stroke="#0088CC">
            <g id="Right-hand-Commands">
                <g id="Group-15" transform="translate(4.000000, 440.000000)">
                    <g id="Group-15-Copy">
                        <circle id="Oval-2" stroke-linecap="square" cx="4.38746439" cy="2.19373219" r="2.19373219"></circle>
                        <path d="M2.65527066,6.90740741 C1.46494754,6.90740741 0.5,7.87235495 0.5,9.06267806 L0.5,10.7179487 C0.5,10.9940911 0.723857625,11.2179487 0.999999923,11.2179487 L7.77492877,11.2179477 C8.05107095,11.2179477 8.27492849,10.9940904 8.27492877,10.7179479 L8.27493155,9.06267528 C8.27493155,7.8723537 7.30998526,6.90740741 6.11966368,6.90740741 L2.65527066,6.90740741 Z" id="Rectangle-6"></path>
                    </g>
                    <g id="Group-16-Copy" transform="translate(3.692308, 4.615385)">
                        <circle id="Oval" fill="#FFFFFF" stroke-linecap="square" cx="4.61538462" cy="4.61538462" r="3.69230769"></circle>
                        <g id="Group-13" transform="translate(4.234635, 4.017063) rotate(-45.000000) translate(-4.234635, -4.017063) translate(2.234635, 1.017063)" stroke-linecap="round" stroke-linejoin="round">
                            <path d="M1.84615385,0.428737933 L1.70414201,5.25443787" id="Line-3"></path>
                            <polyline id="Path-4" transform="translate(1.704142, 4.280642) scale(1, -1) translate(-1.704142, -4.280642) " points="0 5.25443787 1.70414201 3.306847 3.40828402 5.25443787"></polyline>
                        </g>
                    </g>
                </g>
            </g>
        </g>
    </g>
</svg>