
<svg width="62px" height="17px" viewBox="0 0 62 17" version="1.1" xmlns="http://www.w3.org/2000/svg" xmlns:xlink="http://www.w3.org/1999/xlink">
    <!-- Generator: Sketch 49 (51002) - http://www.bohemiancoding.com/sketch -->
    <desc>Created with Sketch.</desc>
    <defs></defs>
    <g id="Symbols" stroke="none" stroke-width="1" fill="none" fill-rule="evenodd">
        <g id="Header" transform="translate(-56.000000, -23.000000)" fill="#FFFFFF">
            <g id="Group-13">
                <g transform="translate(30.000000, 15.000000)">
                    <g id="Group-9" transform="translate(0.000000, 3.000000)">
                        <path d="M31.606623,11.3792415 C29.8919214,11.3792415 28.6735808,12.6234198 28.5494905,14.4896873 L34.5396652,14.4896873 C34.4832606,12.6121091 33.3213246,11.3792415 31.606623,11.3792415 Z M34.5283843,18.2561544 L36.9312227,18.2561544 C36.4799854,20.427811 34.4381368,21.8529607 31.6743086,21.8529607 C28.1659389,21.8529607 26,19.4777112 26,15.6433799 C26,11.8203593 28.1885007,9.35462409 31.6179039,9.35462409 C34.9796215,9.35462409 37.055313,11.6620093 37.055313,15.3945442 L37.055313,16.2428476 L28.5382096,16.2428476 L28.5382096,16.3785762 C28.5720524,18.4823686 29.8242358,19.839654 31.7307132,19.839654 C33.1295488,19.839654 34.1561135,19.251497 34.5283843,18.2561544 Z M39.7176128,5.33932136 L45.5724163,5.33932136 C50.411936,5.33932136 53.2547307,8.3253493 53.2547307,13.4604125 C53.2547307,18.6407186 50.4232169,21.6606786 45.5724163,21.6606786 L39.7176128,21.6606786 L39.7176128,5.33932136 Z M42.323508,7.57884232 L42.323508,19.4211577 L45.290393,19.4211577 C48.6859534,19.4211577 50.6037118,17.2947438 50.6037118,13.4830339 C50.6037118,9.71656687 48.6633916,7.57884232 45.290393,7.57884232 L42.323508,7.57884232 Z M72.6804949,21.6606786 L72.6804949,5.33932136 L69.6459243,5.33932136 L64.4792576,17.996008 L64.3438865,17.996008 L59.1772198,5.33932136 L56.1426492,5.33932136 L56.1426492,21.6606786 L58.5342067,21.6606786 L58.5342067,9.76180971 L58.6582969,9.76180971 L63.4526929,21.3892216 L65.3704512,21.3892216 L70.1648472,9.76180971 L70.2889374,9.76180971 L70.2889374,21.6606786 L72.6804949,21.6606786 Z M75.466885,17.1929474 C75.624818,20.1337325 78.0614993,22 81.7052402,22 C85.5745997,22 88,20.0658683 88,16.9780439 C88,14.5462409 86.6237263,13.2002661 83.2958515,12.419827 L81.4796215,11.9787092 C79.3926492,11.4584165 78.5465793,10.7910845 78.5465793,9.63739188 C78.5465793,8.16699933 79.8551674,7.19427811 81.8067686,7.19427811 C83.7245269,7.19427811 85.033115,8.15568862 85.2248908,9.71656687 L87.7405386,9.71656687 C87.6390102,6.93413174 85.2361718,5 81.8406114,5 C78.3096798,5 75.8955604,6.93413174 75.8955604,9.79574185 C75.8955604,12.1370592 77.2605531,13.5508982 80.2387191,14.2521623 L82.3369723,14.7611444 C84.4577875,15.2814371 85.360262,16.0392548 85.360262,17.2947438 C85.360262,18.742515 83.9050218,19.7944112 81.8857351,19.7944112 C79.753639,19.7944112 78.2194323,18.7764471 78.0276565,17.1929474 L75.466885,17.1929474 Z" id="eDMS"></path>
                    </g>
                </g>
            </g>
        </g>
    </g>
</svg>