
<svg width="21px" height="17px" viewBox="0 0 21 17" version="1.1" xmlns="http://www.w3.org/2000/svg" xmlns:xlink="http://www.w3.org/1999/xlink">
    <!-- Generator: Sketch 49 (51002) - http://www.bohemiancoding.com/sketch -->
    <desc>Created with Sketch.</desc>
    <defs></defs>
    <g id="Symbols" stroke="none" stroke-width="1" fill="none" fill-rule="evenodd">
        <g id="Rows/Default" transform="translate(-71.000000, -136.000000)" fill="#5CC3F6">
            <g id="Badge-option-03" transform="translate(15.000000, 0.000000)">
                <g id="Group-11-Copy-2" transform="translate(56.000000, 136.000000)">
                    <path d="M0,2 L0,15 C1.3527075e-16,16.1045695 0.8954305,17 2,17 L19,17 C20.1045695,17 21,16.1045695 21,15 L21,5.4 C21,4.2954305 20.1045695,3.4 19,3.4 L10.0077201,3.4 C9.66104281,3.4 9.33909851,3.2204452 9.15692207,2.92549288 L7.64307793,0.474507119 C7.46090149,0.179554801 7.13895719,1.1324061e-15 6.79227993,8.8817842e-16 L2,0 C0.8954305,2.02906125e-16 -1.3527075e-16,0.8954305 0,2 Z" id="Path-5"></path>
                </g>
            </g>
        </g>
    </g>
</svg>