
<svg width="14px" height="14px" viewBox="0 0 14 14" version="1.1" xmlns="http://www.w3.org/2000/svg" xmlns:xlink="http://www.w3.org/1999/xlink">
    <!-- Generator: Sketch 49 (51002) - http://www.bohemiancoding.com/sketch -->
    <desc>Created with Sketch.</desc>
    <defs></defs>
    <g id="Symbols" stroke="none" stroke-width="1" fill="none" fill-rule="evenodd" stroke-linecap="round" stroke-linejoin="round">
        <g id="Commands--One-File,-More-Closed" transform="translate(-3.000000, -194.000000)" stroke="#0088CC">
            <g id="Right-hand-Commands" transform="translate(3.000000, 0.000000)">
                <g id="Group-16" transform="translate(1.000000, 195.000000)">
                    <path d="M0,2 L0,10 C1.3527075e-16,11.1045695 0.8954305,12 2,12 L10,12 C11.1045695,12 12,11.1045695 12,10 L12,4.4 C12,3.2954305 11.1045695,2.4 10,2.4 L6.01803399,2.4 C5.63926193,2.4 5.29299881,2.18599762 5.1236068,1.8472136 L4.4763932,0.552786405 C4.30700119,0.214002376 3.96073807,1.52465307e-16 3.58196601,2.22044605e-16 L2,0 C0.8954305,2.02906125e-16 -1.3527075e-16,0.8954305 0,2 Z" id="Path-5"></path>
                    <g id="Group-12" transform="translate(6.000000, 7.500000) rotate(90.000000) translate(-6.000000, -7.500000) translate(3.500000, 6.000000)">
                        <polyline id="Path-8" transform="translate(0.636364, 1.272727) scale(-1, 1) translate(-0.636364, -1.272727) " points="0 0 1.27272727 1.27272727 0 2.54545455"></polyline>
                        <polyline id="Path-8-Copy" points="2.97727273 0 4.25 1.27272727 2.97727273 2.54545455"></polyline>
                    </g>
                </g>
            </g>
        </g>
    </g>
</svg>