
<svg width="14px" height="16px" viewBox="0 0 14 16" version="1.1" xmlns="http://www.w3.org/2000/svg" xmlns:xlink="http://www.w3.org/1999/xlink">
    <!-- Generator: Sketch 49 (51002) - http://www.bohemiancoding.com/sketch -->
    <desc>Created with Sketch.</desc>
    <defs>
        <rect id="path-1" x="1" y="3.18181818" width="10" height="8.18181818" rx="1"></rect>
    </defs>
    <g id="Symbols" stroke="none" stroke-width="1" fill="none" fill-rule="evenodd">
        <g id="Commands--One-File,-More-Open" transform="translate(-3.000000, -406.000000)">
            <g id="Right-hand-Commands">
                <g id="Group-10" transform="translate(4.000000, 407.000000)">
                    <path d="M12,4.36363636 L12,10 C12,11.1045695 11.1045695,12 10,12 L2,12 C0.8954305,12 1.3527075e-16,11.1045695 0,10 L0,4.36363636 L6,0 L12,4.36363636 Z" id="Path-7" stroke="#0088CC" stroke-linecap="round" stroke-linejoin="round"></path>
                    <g id="Rectangle-6">
                        <use fill="#FFFFFF" fill-rule="evenodd" xlink:href="#path-1"></use>
                        <rect stroke="#0088CC" stroke-width="1" x="1.5" y="3.68181818" width="9" height="7.18181818" rx="1"></rect>
                    </g>
                    <path d="M0,6.36363636 L3.6,9.63636364 L8.4,9.63636364 L12,6.36363636 L12,12 C12,13.1045695 11.1045695,14 10,14 L2,14 C0.8954305,14 1.3527075e-16,13.1045695 0,12 L0,6.36363636 Z" id="Path-6" stroke="#0088CC" fill="#FFFFFF" stroke-linecap="round" stroke-linejoin="round"></path>
                </g>
            </g>
        </g>
    </g>
</svg>