
<svg width="10px" height="10px" viewBox="0 0 10 10" version="1.1" xmlns="http://www.w3.org/2000/svg" xmlns:xlink="http://www.w3.org/1999/xlink">
    <!-- Generator: Sketch 49 (51002) - http://www.bohemiancoding.com/sketch -->
    <desc>Created with Sketch.</desc>
    <defs></defs>
    <g id="Symbols" stroke="none" stroke-width="1" fill="none" fill-rule="evenodd">
        <g id="Rows/Default" transform="translate(-44.000000, -58.000000)" fill="#37A4DB" fill-rule="nonzero">
            <g id="Badge-option-03" transform="translate(15.000000, 0.000000)">
                <g id="Group-5" transform="translate(29.000000, 58.000000)">
                    <g id="Badge/Workflow">
                        <path d="M5.49999946,6.70195134 L8.61135477,9.20505424 C8.8181493,9.37142161 8.83743534,9.65868919 8.65443133,9.84668432 C8.47142732,10.0346795 8.15543316,10.0522122 7.94863863,9.88584485 L4.89000022,7.42515299 L1.83136182,9.88584485 C1.62456728,10.0522122 1.30857313,10.0346795 1.12556912,9.84668432 C0.942565108,9.65868919 0.961851141,9.37142161 1.16864568,9.20505424 L4.50000054,6.52496045 L4.50000054,1.46674643 L0.832186384,4.43063828 C0.625795221,4.59741911 0.309759373,4.58051879 0.126300561,4.39289035 C-0.0571582506,4.20526192 -0.0385679066,3.91795645 0.167823257,3.75117562 L4.66781844,0.114813886 C4.85726124,-0.0382712953 5.14273876,-0.0382712953 5.33218156,0.114813886 L9.83217674,3.75117562 C10.0385679,3.91795645 10.0571583,4.20526192 9.87369944,4.39289035 C9.69024063,4.58051879 9.37420478,4.59741911 9.16781362,4.43063828 L5.49999946,1.46674643 L5.49999946,6.70195134 Z" id="Combined-Shape"></path>
                    </g>
                </g>
            </g>
        </g>
    </g>
</svg>